<mxfile host="app.diagrams.net" modified="2022-04-06T07:53:45.718Z" agent="5.0 (Windows NT 10.0; Win64; x64) AppleWebKit/537.36 (KHTML, like Gecko) Chrome/100.0.4896.75 Safari/537.36" version="17.2.4" etag="tKh49fsdUZ-eVkRvQ87a" type="github">
  <diagram id="5hLnHkk5vMWvdQtuoabF" name="Page-1">
    <mxGraphModel dx="848" dy="465" grid="1" gridSize="10" guides="1" tooltips="1" connect="1" arrows="1" fold="1" page="1" pageScale="1" pageWidth="827" pageHeight="1169" math="0" shadow="0">
      <root>
        <mxCell id="0" />
        <mxCell id="1" parent="0" />
        <mxCell id="d_RVJid0owqQk2fxjYEc-4" value="" style="edgeStyle=orthogonalEdgeStyle;rounded=0;orthogonalLoop=1;jettySize=auto;html=1;" edge="1" parent="1" source="d_RVJid0owqQk2fxjYEc-1" target="d_RVJid0owqQk2fxjYEc-3">
          <mxGeometry relative="1" as="geometry" />
        </mxCell>
        <mxCell id="d_RVJid0owqQk2fxjYEc-1" value="" style="ellipse;html=1;shape=startState;fillColor=#000000;strokeColor=#ff0000;" vertex="1" parent="1">
          <mxGeometry x="100" y="40" width="30" height="30" as="geometry" />
        </mxCell>
        <mxCell id="d_RVJid0owqQk2fxjYEc-3" value="" style="rhombus;whiteSpace=wrap;html=1;fillColor=#ffe6cc;strokeColor=#d79b00;direction=south;" vertex="1" parent="1">
          <mxGeometry x="75" y="150" width="80" height="80" as="geometry" />
        </mxCell>
        <mxCell id="d_RVJid0owqQk2fxjYEc-8" value="вывод&quot;в этом месяце 31 дней&quot;&amp;nbsp;" style="rounded=1;whiteSpace=wrap;html=1;arcSize=40;fontColor=#000000;fillColor=#ffffc0;strokeColor=#ff0000;" vertex="1" parent="1">
          <mxGeometry x="670" y="20" width="120" height="40" as="geometry" />
        </mxCell>
        <mxCell id="d_RVJid0owqQk2fxjYEc-12" value="вывод&quot;в этом месяце 30 дней&quot;&amp;nbsp;" style="rounded=1;whiteSpace=wrap;html=1;arcSize=40;fontColor=#000000;fillColor=#ffffc0;strokeColor=#ff0000;" vertex="1" parent="1">
          <mxGeometry x="670" y="100" width="120" height="40" as="geometry" />
        </mxCell>
        <mxCell id="d_RVJid0owqQk2fxjYEc-25" value="" style="edgeStyle=orthogonalEdgeStyle;rounded=0;orthogonalLoop=1;jettySize=auto;html=1;" edge="1" parent="1" source="d_RVJid0owqQk2fxjYEc-13" target="d_RVJid0owqQk2fxjYEc-26">
          <mxGeometry relative="1" as="geometry">
            <mxPoint x="690" y="270" as="targetPoint" />
          </mxGeometry>
        </mxCell>
        <mxCell id="d_RVJid0owqQk2fxjYEc-13" value="вывод &quot;Год высокосный?&quot;" style="rounded=1;whiteSpace=wrap;html=1;arcSize=40;fontColor=#000000;fillColor=#ffffc0;strokeColor=#ff0000;" vertex="1" parent="1">
          <mxGeometry x="670" y="170" width="120" height="40" as="geometry" />
        </mxCell>
        <mxCell id="d_RVJid0owqQk2fxjYEc-14" value="выводить &quot;Неверный ввод данных&quot;" style="rounded=1;whiteSpace=wrap;html=1;arcSize=40;fontColor=#000000;fillColor=#ffffc0;strokeColor=#ff0000;" vertex="1" parent="1">
          <mxGeometry x="670" y="480" width="120" height="40" as="geometry" />
        </mxCell>
        <mxCell id="d_RVJid0owqQk2fxjYEc-15" value="вывод&quot;в этом месяце 28 дней&quot;&amp;nbsp;" style="rounded=1;whiteSpace=wrap;html=1;arcSize=40;fontColor=#000000;fillColor=#ffffc0;strokeColor=#ff0000;" vertex="1" parent="1">
          <mxGeometry x="780" y="360" width="120" height="40" as="geometry" />
        </mxCell>
        <mxCell id="d_RVJid0owqQk2fxjYEc-16" value="" style="endArrow=open;endFill=1;endSize=12;html=1;rounded=0;entryX=0;entryY=0.5;entryDx=0;entryDy=0;" edge="1" parent="1" target="d_RVJid0owqQk2fxjYEc-8">
          <mxGeometry width="160" relative="1" as="geometry">
            <mxPoint x="155" y="189.5" as="sourcePoint" />
            <mxPoint x="315" y="189.5" as="targetPoint" />
            <Array as="points">
              <mxPoint x="240" y="40" />
            </Array>
          </mxGeometry>
        </mxCell>
        <mxCell id="d_RVJid0owqQk2fxjYEc-17" value="" style="endArrow=open;endFill=1;endSize=12;html=1;rounded=0;entryX=0;entryY=0.5;entryDx=0;entryDy=0;" edge="1" parent="1" target="d_RVJid0owqQk2fxjYEc-12">
          <mxGeometry width="160" relative="1" as="geometry">
            <mxPoint x="155" y="189.5" as="sourcePoint" />
            <mxPoint x="315" y="189.5" as="targetPoint" />
            <Array as="points">
              <mxPoint x="240" y="120" />
            </Array>
          </mxGeometry>
        </mxCell>
        <mxCell id="d_RVJid0owqQk2fxjYEc-18" value="" style="endArrow=open;endFill=1;endSize=12;html=1;rounded=0;entryX=0;entryY=0.5;entryDx=0;entryDy=0;" edge="1" parent="1" target="d_RVJid0owqQk2fxjYEc-13">
          <mxGeometry width="160" relative="1" as="geometry">
            <mxPoint x="155" y="189.5" as="sourcePoint" />
            <mxPoint x="315" y="189.5" as="targetPoint" />
          </mxGeometry>
        </mxCell>
        <mxCell id="d_RVJid0owqQk2fxjYEc-19" value="" style="endArrow=open;endFill=1;endSize=12;html=1;rounded=0;entryX=0;entryY=0.5;entryDx=0;entryDy=0;" edge="1" parent="1" target="d_RVJid0owqQk2fxjYEc-14">
          <mxGeometry width="160" relative="1" as="geometry">
            <mxPoint x="155" y="189.5" as="sourcePoint" />
            <mxPoint x="315" y="189.5" as="targetPoint" />
            <Array as="points">
              <mxPoint x="230" y="500" />
            </Array>
          </mxGeometry>
        </mxCell>
        <mxCell id="d_RVJid0owqQk2fxjYEc-21" value="{a==&quot;1&quot; or a==&quot;3&quot; or a==&quot;5&quot; or a==&quot;7&quot; or a==&quot;8&quot; or a==&quot;10&quot; or a==&quot;12&quot;:}" style="text;html=1;align=center;verticalAlign=middle;resizable=0;points=[];autosize=1;strokeColor=none;fillColor=none;" vertex="1" parent="1">
          <mxGeometry x="245" y="20" width="400" height="20" as="geometry" />
        </mxCell>
        <mxCell id="d_RVJid0owqQk2fxjYEc-22" value="а==&quot;4&quot; or f==&quot;6&quot; or a==&quot;9&quot; or a==&quot;11&quot;:" style="text;html=1;align=center;verticalAlign=middle;resizable=0;points=[];autosize=1;strokeColor=none;fillColor=none;" vertex="1" parent="1">
          <mxGeometry x="304" y="100" width="220" height="20" as="geometry" />
        </mxCell>
        <mxCell id="d_RVJid0owqQk2fxjYEc-23" value="a==&quot;2&quot;" style="text;html=1;align=center;verticalAlign=middle;resizable=0;points=[];autosize=1;strokeColor=none;fillColor=none;" vertex="1" parent="1">
          <mxGeometry x="435" y="160" width="50" height="20" as="geometry" />
        </mxCell>
        <mxCell id="d_RVJid0owqQk2fxjYEc-26" value="вывод &quot;Год высокосный?&quot;" style="rhombus;whiteSpace=wrap;html=1;fillColor=#ffffc0;strokeColor=#ff0000;" vertex="1" parent="1">
          <mxGeometry x="670" y="270" width="120" height="80" as="geometry" />
        </mxCell>
        <mxCell id="d_RVJid0owqQk2fxjYEc-27" value="no" style="edgeStyle=orthogonalEdgeStyle;html=1;align=left;verticalAlign=bottom;endArrow=open;endSize=8;strokeColor=#ff0000;rounded=0;exitX=1;exitY=0.5;exitDx=0;exitDy=0;" edge="1" source="d_RVJid0owqQk2fxjYEc-26" parent="1">
          <mxGeometry x="-0.6" y="10" relative="1" as="geometry">
            <mxPoint x="840" y="360" as="targetPoint" />
            <mxPoint x="730" y="289" as="sourcePoint" />
            <Array as="points">
              <mxPoint x="840" y="310" />
              <mxPoint x="840" y="360" />
            </Array>
            <mxPoint as="offset" />
          </mxGeometry>
        </mxCell>
        <mxCell id="d_RVJid0owqQk2fxjYEc-28" value="yes" style="edgeStyle=orthogonalEdgeStyle;html=1;align=left;verticalAlign=top;endArrow=open;endSize=8;strokeColor=#ff0000;rounded=0;" edge="1" source="d_RVJid0owqQk2fxjYEc-26" parent="1">
          <mxGeometry x="-0.2308" y="-20" relative="1" as="geometry">
            <mxPoint x="590" y="360" as="targetPoint" />
            <mxPoint as="offset" />
          </mxGeometry>
        </mxCell>
        <mxCell id="d_RVJid0owqQk2fxjYEc-35" value="вывод&quot;в этом месяце 29 дней&quot;&amp;nbsp;" style="rounded=1;whiteSpace=wrap;html=1;arcSize=40;fontColor=#000000;fillColor=#ffffc0;strokeColor=#ff0000;" vertex="1" parent="1">
          <mxGeometry x="530" y="360" width="120" height="40" as="geometry" />
        </mxCell>
        <mxCell id="d_RVJid0owqQk2fxjYEc-36" value="{Else}" style="text;html=1;align=center;verticalAlign=middle;resizable=0;points=[];autosize=1;strokeColor=none;fillColor=none;" vertex="1" parent="1">
          <mxGeometry x="325" y="470" width="50" height="20" as="geometry" />
        </mxCell>
        <mxCell id="d_RVJid0owqQk2fxjYEc-38" value="" style="rhombus;whiteSpace=wrap;html=1;fillColor=#ffe6cc;strokeColor=#d79b00;direction=south;" vertex="1" parent="1">
          <mxGeometry x="1120" y="150" width="80" height="80" as="geometry" />
        </mxCell>
        <mxCell id="d_RVJid0owqQk2fxjYEc-39" value="" style="endArrow=open;endFill=1;endSize=12;html=1;rounded=0;" edge="1" parent="1" target="d_RVJid0owqQk2fxjYEc-38">
          <mxGeometry width="160" relative="1" as="geometry">
            <mxPoint x="790" y="499.5" as="sourcePoint" />
            <mxPoint x="950" y="499.5" as="targetPoint" />
            <Array as="points">
              <mxPoint x="920" y="450" />
            </Array>
          </mxGeometry>
        </mxCell>
        <mxCell id="d_RVJid0owqQk2fxjYEc-40" value="" style="endArrow=open;endFill=1;endSize=12;html=1;rounded=0;entryX=0.5;entryY=1;entryDx=0;entryDy=0;" edge="1" parent="1" target="d_RVJid0owqQk2fxjYEc-38">
          <mxGeometry width="160" relative="1" as="geometry">
            <mxPoint x="790" y="189.5" as="sourcePoint" />
            <mxPoint x="950" y="189.5" as="targetPoint" />
          </mxGeometry>
        </mxCell>
        <mxCell id="d_RVJid0owqQk2fxjYEc-41" value="" style="endArrow=open;endFill=1;endSize=12;html=1;rounded=0;" edge="1" parent="1" target="d_RVJid0owqQk2fxjYEc-38">
          <mxGeometry width="160" relative="1" as="geometry">
            <mxPoint x="790" y="120" as="sourcePoint" />
            <mxPoint x="950" y="120" as="targetPoint" />
          </mxGeometry>
        </mxCell>
        <mxCell id="d_RVJid0owqQk2fxjYEc-42" value="" style="endArrow=open;endFill=1;endSize=12;html=1;rounded=0;" edge="1" parent="1" target="d_RVJid0owqQk2fxjYEc-38">
          <mxGeometry width="160" relative="1" as="geometry">
            <mxPoint x="790" y="40" as="sourcePoint" />
            <mxPoint x="950" y="40" as="targetPoint" />
          </mxGeometry>
        </mxCell>
        <mxCell id="d_RVJid0owqQk2fxjYEc-43" value="" style="ellipse;html=1;shape=endState;fillColor=#000000;strokeColor=#ff0000;" vertex="1" parent="1">
          <mxGeometry x="1240" y="175" width="30" height="30" as="geometry" />
        </mxCell>
        <mxCell id="d_RVJid0owqQk2fxjYEc-44" value="" style="endArrow=open;endFill=1;endSize=12;html=1;rounded=0;" edge="1" parent="1">
          <mxGeometry width="160" relative="1" as="geometry">
            <mxPoint x="1200" y="189.5" as="sourcePoint" />
            <mxPoint x="1240" y="190" as="targetPoint" />
          </mxGeometry>
        </mxCell>
      </root>
    </mxGraphModel>
  </diagram>
</mxfile>
